<svg width="800" height="400" viewBox="0 0 800 400" fill="none" xmlns="http://www.w3.org/2000/svg">
<rect width="800" height="400" fill="#181818" fill-opacity="0.8"/>
<rect width="407" height="112" transform="translate(319 247)" fill="white"/>
<rect x="319" y="247" width="407" height="112" fill="#907CFF" fill-opacity="0.84"/>
<rect x="107" y="127" width="432" height="188" fill="black"/>
<rect x="107" y="111" width="432" height="16" fill="black"/>
<path d="M190.149 226.929L189.157 223.585H185.141L184.149 226.929H182.869L186.357 215.761H187.957L191.461 226.929H190.149ZM187.573 218.289L187.221 216.897H187.061L186.709 218.289L185.445 222.529H188.869L187.573 218.289ZM198.037 226.929L195.445 218.673H196.661L197.925 222.833L198.693 225.857H198.853L199.621 222.833L200.885 218.673H202.069L199.477 226.929H198.037ZM204.138 216.673C203.637 216.673 203.386 216.454 203.386 216.017V215.761C203.386 215.323 203.637 215.105 204.138 215.105C204.639 215.105 204.89 215.323 204.89 215.761V216.017C204.89 216.454 204.639 216.673 204.138 216.673ZM203.53 218.673H204.746V226.929H203.53V218.673ZM209.459 227.121C208.776 227.121 208.189 226.982 207.699 226.705C207.219 226.427 206.808 226.043 206.467 225.553L207.315 224.849C207.603 225.254 207.912 225.563 208.243 225.777C208.584 225.99 208.989 226.097 209.459 226.097C209.939 226.097 210.317 225.979 210.595 225.745C210.883 225.499 211.027 225.153 211.027 224.705C211.027 224.342 210.936 224.049 210.755 223.825C210.573 223.601 210.237 223.446 209.747 223.361L209.123 223.249C208.323 223.099 207.725 222.849 207.331 222.497C206.947 222.145 206.755 221.611 206.755 220.897C206.755 220.481 206.819 220.123 206.947 219.825C207.075 219.515 207.256 219.265 207.491 219.073C207.725 218.87 208.003 218.726 208.323 218.641C208.653 218.545 209.011 218.497 209.395 218.497C210.013 218.497 210.531 218.609 210.947 218.833C211.373 219.046 211.741 219.361 212.051 219.777L211.267 220.497C211.085 220.241 210.845 220.017 210.547 219.825C210.248 219.622 209.864 219.521 209.395 219.521C208.424 219.521 207.939 219.963 207.939 220.849C207.939 221.254 208.04 221.553 208.243 221.745C208.456 221.926 208.797 222.059 209.267 222.145L209.891 222.257C210.733 222.406 211.331 222.667 211.683 223.041C212.035 223.414 212.211 223.921 212.211 224.561C212.211 225.361 211.976 225.99 211.507 226.449C211.048 226.897 210.365 227.121 209.459 227.121ZM218.762 225.585H218.602C218.442 226.097 218.191 226.481 217.85 226.737C217.519 226.993 217.066 227.121 216.49 227.121C215.754 227.121 215.173 226.87 214.746 226.369C214.33 225.867 214.122 225.094 214.122 224.049V218.673H215.338V223.969C215.338 224.63 215.471 225.137 215.738 225.489C216.015 225.841 216.437 226.017 217.002 226.017C217.493 226.017 217.909 225.867 218.25 225.569C218.591 225.27 218.762 224.849 218.762 224.305V218.673H219.978V226.929H218.762V225.585ZM227.621 226.929C226.832 226.929 226.437 226.534 226.437 225.745V225.585H226.277C226.138 226.086 225.882 226.47 225.509 226.737C225.146 226.993 224.709 227.121 224.197 227.121C223.397 227.121 222.8 226.918 222.405 226.513C222.01 226.107 221.813 225.51 221.813 224.721C221.813 223.953 222.064 223.345 222.565 222.897C223.077 222.449 223.872 222.225 224.949 222.225H226.437V221.313C226.437 220.705 226.298 220.257 226.021 219.969C225.754 219.681 225.328 219.537 224.741 219.537C224.261 219.537 223.872 219.643 223.573 219.857C223.285 220.059 223.034 220.358 222.821 220.753L222.101 220.081C222.314 219.633 222.656 219.259 223.125 218.961C223.594 218.651 224.149 218.497 224.789 218.497C225.728 218.497 226.437 218.726 226.917 219.185C227.408 219.633 227.653 220.299 227.653 221.185V225.857H228.485V226.929H227.621ZM224.501 226.065C224.778 226.065 225.034 226.017 225.269 225.921C225.514 225.825 225.722 225.702 225.893 225.553C226.064 225.393 226.197 225.217 226.293 225.025C226.389 224.822 226.437 224.614 226.437 224.401V223.153H224.917C224.277 223.153 223.808 223.259 223.509 223.473C223.221 223.686 223.077 223.995 223.077 224.401V224.849C223.077 225.265 223.205 225.574 223.461 225.777C223.717 225.969 224.064 226.065 224.501 226.065ZM231.387 226.929C230.95 226.929 230.63 226.833 230.427 226.641C230.235 226.438 230.139 226.118 230.139 225.681V215.089H231.355V225.857H232.395V226.929H231.387ZM242.219 225.585H242.059C241.899 226.129 241.638 226.523 241.275 226.769C240.923 227.003 240.491 227.121 239.979 227.121C239.488 227.121 239.056 227.019 238.683 226.817C238.31 226.614 237.995 226.326 237.739 225.953C237.483 225.579 237.291 225.126 237.163 224.593C237.035 224.059 236.971 223.462 236.971 222.801C236.971 222.139 237.035 221.542 237.163 221.009C237.291 220.475 237.483 220.022 237.739 219.649C237.995 219.275 238.31 218.987 238.683 218.785C239.056 218.582 239.488 218.481 239.979 218.481C240.491 218.481 240.923 218.603 241.275 218.849C241.638 219.083 241.899 219.473 242.059 220.017H242.219V218.673H243.435V230.129H242.219V225.585ZM240.347 226.033C240.603 226.033 240.843 225.995 241.067 225.921C241.302 225.846 241.499 225.739 241.659 225.601C241.83 225.462 241.963 225.297 242.059 225.105C242.166 224.913 242.219 224.699 242.219 224.465V221.137C242.219 220.902 242.166 220.689 242.059 220.497C241.963 220.305 241.83 220.139 241.659 220.001C241.499 219.862 241.302 219.755 241.067 219.681C240.843 219.606 240.603 219.569 240.347 219.569C239.675 219.569 239.163 219.782 238.811 220.209C238.459 220.625 238.283 221.211 238.283 221.969V223.633C238.283 224.39 238.459 224.982 238.811 225.409C239.163 225.825 239.675 226.033 240.347 226.033ZM250.434 225.585H250.274C250.114 226.097 249.863 226.481 249.522 226.737C249.191 226.993 248.738 227.121 248.162 227.121C247.426 227.121 246.844 226.87 246.418 226.369C246.002 225.867 245.794 225.094 245.794 224.049V218.673H247.01V223.969C247.01 224.63 247.143 225.137 247.41 225.489C247.687 225.841 248.108 226.017 248.674 226.017C249.164 226.017 249.58 225.867 249.922 225.569C250.263 225.27 250.434 224.849 250.434 224.305V218.673H251.65V226.929H250.434V225.585ZM259.293 226.929C258.504 226.929 258.109 226.534 258.109 225.745V225.585H257.949C257.81 226.086 257.554 226.47 257.181 226.737C256.818 226.993 256.381 227.121 255.869 227.121C255.069 227.121 254.472 226.918 254.077 226.513C253.682 226.107 253.485 225.51 253.485 224.721C253.485 223.953 253.736 223.345 254.237 222.897C254.749 222.449 255.544 222.225 256.621 222.225H258.109V221.313C258.109 220.705 257.97 220.257 257.693 219.969C257.426 219.681 257 219.537 256.413 219.537C255.933 219.537 255.544 219.643 255.245 219.857C254.957 220.059 254.706 220.358 254.493 220.753L253.773 220.081C253.986 219.633 254.328 219.259 254.797 218.961C255.266 218.651 255.821 218.497 256.461 218.497C257.4 218.497 258.109 218.726 258.589 219.185C259.08 219.633 259.325 220.299 259.325 221.185V225.857H260.157V226.929H259.293ZM256.173 226.065C256.45 226.065 256.706 226.017 256.941 225.921C257.186 225.825 257.394 225.702 257.565 225.553C257.736 225.393 257.869 225.217 257.965 225.025C258.061 224.822 258.109 224.614 258.109 224.401V223.153H256.589C255.949 223.153 255.48 223.259 255.181 223.473C254.893 223.686 254.749 223.995 254.749 224.401V224.849C254.749 225.265 254.877 225.574 255.133 225.777C255.389 225.969 255.736 226.065 256.173 226.065ZM261.811 226.929V218.673H263.027V220.017H263.187C263.347 219.505 263.593 219.121 263.923 218.865C264.265 218.609 264.723 218.481 265.299 218.481C266.035 218.481 266.611 218.731 267.027 219.233C267.454 219.734 267.667 220.507 267.667 221.553V226.929H266.451V221.633C266.451 220.971 266.313 220.465 266.035 220.113C265.769 219.761 265.353 219.585 264.787 219.585C264.297 219.585 263.881 219.734 263.539 220.033C263.198 220.331 263.027 220.753 263.027 221.297V226.929H261.811ZM271.678 226.929C271.241 226.929 270.921 226.833 270.718 226.641C270.526 226.438 270.43 226.118 270.43 225.681V219.745H269.214V218.673H269.934C270.18 218.673 270.34 218.614 270.414 218.497C270.5 218.369 270.542 218.182 270.542 217.937V216.401H271.646V218.673H273.246V219.745H271.646V225.857H273.166V226.929H271.678ZM279.668 225.585H279.508C279.348 226.097 279.097 226.481 278.756 226.737C278.425 226.993 277.972 227.121 277.396 227.121C276.66 227.121 276.079 226.87 275.652 226.369C275.236 225.867 275.028 225.094 275.028 224.049V218.673H276.244V223.969C276.244 224.63 276.377 225.137 276.644 225.489C276.921 225.841 277.343 226.017 277.908 226.017C278.399 226.017 278.815 225.867 279.156 225.569C279.497 225.27 279.668 224.849 279.668 224.305V218.673H280.884V226.929H279.668V225.585ZM283.311 226.929V218.673H284.527V220.017H284.687C284.847 219.505 285.082 219.121 285.391 218.865C285.701 218.609 286.138 218.481 286.703 218.481C287.215 218.481 287.647 218.609 287.999 218.865C288.362 219.11 288.634 219.494 288.815 220.017H288.975C289.146 219.505 289.413 219.121 289.775 218.865C290.138 218.609 290.618 218.481 291.215 218.481C291.919 218.481 292.485 218.731 292.911 219.233C293.338 219.734 293.551 220.507 293.551 221.553V226.929H292.335V221.633C292.335 220.971 292.202 220.465 291.935 220.113C291.679 219.761 291.279 219.585 290.735 219.585C290.255 219.585 289.85 219.734 289.519 220.033C289.199 220.331 289.039 220.753 289.039 221.297V226.929H287.823V221.633C287.823 220.971 287.69 220.465 287.423 220.113C287.167 219.761 286.767 219.585 286.223 219.585C285.743 219.585 285.338 219.734 285.007 220.033C284.687 220.331 284.527 220.753 284.527 221.297V226.929H283.311ZM299.296 218.673H300.512V220.017H300.672C300.832 219.473 301.088 219.083 301.44 218.849C301.802 218.603 302.24 218.481 302.752 218.481C303.242 218.481 303.674 218.582 304.048 218.785C304.421 218.987 304.736 219.275 304.992 219.649C305.248 220.022 305.44 220.475 305.568 221.009C305.696 221.542 305.76 222.139 305.76 222.801C305.76 223.462 305.696 224.059 305.568 224.593C305.44 225.126 305.248 225.579 304.992 225.953C304.736 226.326 304.421 226.614 304.048 226.817C303.674 227.019 303.242 227.121 302.752 227.121C302.24 227.121 301.802 227.003 301.44 226.769C301.088 226.523 300.832 226.129 300.672 225.585H300.512V230.129H299.296V218.673ZM302.384 226.033C303.056 226.033 303.568 225.825 303.92 225.409C304.272 224.982 304.448 224.39 304.448 223.633V221.969C304.448 221.211 304.272 220.625 303.92 220.209C303.568 219.782 303.056 219.569 302.384 219.569C302.128 219.569 301.882 219.606 301.648 219.681C301.424 219.755 301.226 219.862 301.056 220.001C300.896 220.139 300.762 220.305 300.656 220.497C300.56 220.689 300.512 220.902 300.512 221.137V224.465C300.512 224.699 300.56 224.913 300.656 225.105C300.762 225.297 300.896 225.462 301.056 225.601C301.226 225.739 301.424 225.846 301.648 225.921C301.882 225.995 302.128 226.033 302.384 226.033ZM307.686 226.929V218.673H308.902V220.209H309.062C309.201 219.729 309.436 219.355 309.766 219.089C310.108 218.811 310.55 218.673 311.094 218.673H311.542V219.905H310.742C310.166 219.905 309.713 220.033 309.382 220.289C309.062 220.545 308.902 220.929 308.902 221.441V226.929H307.686ZM315.783 227.121C315.303 227.121 314.855 227.041 314.439 226.881C314.023 226.721 313.666 226.465 313.367 226.113C313.069 225.761 312.834 225.313 312.663 224.769C312.493 224.225 312.407 223.569 312.407 222.801C312.407 222.033 312.493 221.377 312.663 220.833C312.834 220.289 313.069 219.841 313.367 219.489C313.666 219.137 314.023 218.881 314.439 218.721C314.855 218.561 315.303 218.481 315.783 218.481C316.263 218.481 316.711 218.561 317.127 218.721C317.543 218.881 317.901 219.137 318.199 219.489C318.498 219.841 318.733 220.289 318.903 220.833C319.074 221.377 319.159 222.033 319.159 222.801C319.159 223.569 319.074 224.225 318.903 224.769C318.733 225.313 318.498 225.761 318.199 226.113C317.901 226.465 317.543 226.721 317.127 226.881C316.711 227.041 316.263 227.121 315.783 227.121ZM315.783 226.033C316.445 226.033 316.951 225.835 317.303 225.441C317.666 225.046 317.847 224.443 317.847 223.633V221.969C317.847 221.158 317.666 220.555 317.303 220.161C316.951 219.766 316.445 219.569 315.783 219.569C315.122 219.569 314.61 219.766 314.247 220.161C313.895 220.555 313.719 221.158 313.719 221.969V223.633C313.719 224.443 313.895 225.046 314.247 225.441C314.61 225.835 315.122 226.033 315.783 226.033ZM327.334 227.857C327.334 228.731 327.035 229.361 326.438 229.745C325.851 230.129 324.939 230.321 323.702 230.321C322.518 230.321 321.67 230.145 321.158 229.793C320.657 229.441 320.406 228.934 320.406 228.273C320.406 227.825 320.518 227.473 320.742 227.217C320.966 226.961 321.254 226.801 321.606 226.737V226.513C321.393 226.395 321.222 226.246 321.094 226.065C320.977 225.873 320.918 225.649 320.918 225.393C320.918 225.051 321.014 224.758 321.206 224.513C321.409 224.267 321.734 224.118 322.182 224.065V223.889C321.755 223.675 321.419 223.361 321.174 222.945C320.939 222.518 320.822 221.985 320.822 221.345C320.822 220.406 321.078 219.697 321.59 219.217C322.102 218.737 322.79 218.497 323.654 218.497C324.166 218.497 324.63 218.587 325.046 218.769V218.481C325.046 218.171 325.115 217.947 325.254 217.809C325.393 217.67 325.617 217.601 325.926 217.601H327.03V218.673H325.606V219.121C325.883 219.366 326.097 219.67 326.246 220.033C326.406 220.395 326.486 220.833 326.486 221.345C326.486 222.283 326.23 222.993 325.718 223.473C325.206 223.953 324.518 224.193 323.654 224.193C323.398 224.193 323.137 224.166 322.87 224.113C322.571 224.166 322.342 224.289 322.182 224.481C322.033 224.662 321.958 224.849 321.958 225.041C321.958 225.254 322.033 225.414 322.182 225.521C322.331 225.627 322.577 225.681 322.918 225.681H324.726C325.654 225.681 326.321 225.867 326.726 226.241C327.131 226.614 327.334 227.153 327.334 227.857ZM326.198 227.937C326.198 227.574 326.086 227.297 325.862 227.105C325.638 226.923 325.254 226.833 324.71 226.833H322.198C321.953 226.95 321.777 227.099 321.67 227.281C321.574 227.462 321.526 227.691 321.526 227.969C321.526 228.385 321.654 228.71 321.91 228.945C322.166 229.19 322.577 229.313 323.142 229.313H324.198C324.859 229.313 325.355 229.201 325.686 228.977C326.027 228.763 326.198 228.417 326.198 227.937ZM323.654 223.201C324.155 223.201 324.545 223.073 324.822 222.817C325.099 222.561 325.238 222.166 325.238 221.633V221.041C325.238 220.507 325.099 220.113 324.822 219.857C324.545 219.601 324.155 219.473 323.654 219.473C323.153 219.473 322.763 219.601 322.486 219.857C322.209 220.113 322.07 220.507 322.07 221.041V221.633C322.07 222.166 322.209 222.561 322.486 222.817C322.763 223.073 323.153 223.201 323.654 223.201ZM328.655 226.929V218.673H329.871V220.209H330.031C330.17 219.729 330.404 219.355 330.735 219.089C331.076 218.811 331.519 218.673 332.063 218.673H332.511V219.905H331.711C331.135 219.905 330.682 220.033 330.351 220.289C330.031 220.545 329.871 220.929 329.871 221.441V226.929H328.655ZM339.074 226.929C338.285 226.929 337.89 226.534 337.89 225.745V225.585H337.73C337.591 226.086 337.335 226.47 336.962 226.737C336.599 226.993 336.162 227.121 335.65 227.121C334.85 227.121 334.253 226.918 333.858 226.513C333.463 226.107 333.266 225.51 333.266 224.721C333.266 223.953 333.517 223.345 334.018 222.897C334.53 222.449 335.325 222.225 336.402 222.225H337.89V221.313C337.89 220.705 337.751 220.257 337.474 219.969C337.207 219.681 336.781 219.537 336.194 219.537C335.714 219.537 335.325 219.643 335.026 219.857C334.738 220.059 334.487 220.358 334.274 220.753L333.554 220.081C333.767 219.633 334.109 219.259 334.578 218.961C335.047 218.651 335.602 218.497 336.242 218.497C337.181 218.497 337.89 218.726 338.37 219.185C338.861 219.633 339.106 220.299 339.106 221.185V225.857H339.938V226.929H339.074ZM335.954 226.065C336.231 226.065 336.487 226.017 336.722 225.921C336.967 225.825 337.175 225.702 337.346 225.553C337.517 225.393 337.65 225.217 337.746 225.025C337.842 224.822 337.89 224.614 337.89 224.401V223.153H336.37C335.73 223.153 335.261 223.259 334.962 223.473C334.674 223.686 334.53 223.995 334.53 224.401V224.849C334.53 225.265 334.658 225.574 334.914 225.777C335.17 225.969 335.517 226.065 335.954 226.065ZM341.592 226.929V218.673H342.808V220.017H342.968C343.128 219.505 343.363 219.121 343.672 218.865C343.982 218.609 344.419 218.481 344.984 218.481C345.496 218.481 345.928 218.609 346.28 218.865C346.643 219.11 346.915 219.494 347.096 220.017H347.256C347.427 219.505 347.694 219.121 348.056 218.865C348.419 218.609 348.899 218.481 349.496 218.481C350.2 218.481 350.766 218.731 351.192 219.233C351.619 219.734 351.832 220.507 351.832 221.553V226.929H350.616V221.633C350.616 220.971 350.483 220.465 350.216 220.113C349.96 219.761 349.56 219.585 349.016 219.585C348.536 219.585 348.131 219.734 347.8 220.033C347.48 220.331 347.32 220.753 347.32 221.297V226.929H346.104V221.633C346.104 220.971 345.971 220.465 345.704 220.113C345.448 219.761 345.048 219.585 344.504 219.585C344.024 219.585 343.619 219.734 343.288 220.033C342.968 220.331 342.808 220.753 342.808 221.297V226.929H341.592ZM354.186 226.929V218.673H355.402V220.017H355.562C355.722 219.505 355.957 219.121 356.266 218.865C356.576 218.609 357.013 218.481 357.578 218.481C358.09 218.481 358.522 218.609 358.874 218.865C359.237 219.11 359.509 219.494 359.69 220.017H359.85C360.021 219.505 360.288 219.121 360.65 218.865C361.013 218.609 361.493 218.481 362.09 218.481C362.794 218.481 363.36 218.731 363.786 219.233C364.213 219.734 364.426 220.507 364.426 221.553V226.929H363.21V221.633C363.21 220.971 363.077 220.465 362.81 220.113C362.554 219.761 362.154 219.585 361.61 219.585C361.13 219.585 360.725 219.734 360.394 220.033C360.074 220.331 359.914 220.753 359.914 221.297V226.929H358.698V221.633C358.698 220.971 358.565 220.465 358.298 220.113C358.042 219.761 357.642 219.585 357.098 219.585C356.618 219.585 356.213 219.734 355.882 220.033C355.562 220.331 355.402 220.753 355.402 221.297V226.929H354.186ZM367.388 216.673C366.887 216.673 366.636 216.454 366.636 216.017V215.761C366.636 215.323 366.887 215.105 367.388 215.105C367.889 215.105 368.14 215.323 368.14 215.761V216.017C368.14 216.454 367.889 216.673 367.388 216.673ZM366.78 218.673H367.996V226.929H366.78V218.673ZM370.421 226.929V218.673H371.637V220.017H371.797C371.957 219.505 372.202 219.121 372.533 218.865C372.874 218.609 373.333 218.481 373.909 218.481C374.645 218.481 375.221 218.731 375.637 219.233C376.063 219.734 376.277 220.507 376.277 221.553V226.929H375.061V221.633C375.061 220.971 374.922 220.465 374.645 220.113C374.378 219.761 373.962 219.585 373.397 219.585C372.906 219.585 372.49 219.734 372.149 220.033C371.807 220.331 371.637 220.753 371.637 221.297V226.929H370.421ZM384.928 227.857C384.928 228.731 384.629 229.361 384.032 229.745C383.445 230.129 382.533 230.321 381.296 230.321C380.112 230.321 379.264 230.145 378.752 229.793C378.25 229.441 378 228.934 378 228.273C378 227.825 378.112 227.473 378.336 227.217C378.56 226.961 378.848 226.801 379.2 226.737V226.513C378.986 226.395 378.816 226.246 378.688 226.065C378.57 225.873 378.512 225.649 378.512 225.393C378.512 225.051 378.608 224.758 378.8 224.513C379.002 224.267 379.328 224.118 379.776 224.065V223.889C379.349 223.675 379.013 223.361 378.768 222.945C378.533 222.518 378.416 221.985 378.416 221.345C378.416 220.406 378.672 219.697 379.184 219.217C379.696 218.737 380.384 218.497 381.248 218.497C381.76 218.497 382.224 218.587 382.64 218.769V218.481C382.64 218.171 382.709 217.947 382.848 217.809C382.986 217.67 383.21 217.601 383.52 217.601H384.624V218.673H383.2V219.121C383.477 219.366 383.69 219.67 383.84 220.033C384 220.395 384.08 220.833 384.08 221.345C384.08 222.283 383.824 222.993 383.312 223.473C382.8 223.953 382.112 224.193 381.248 224.193C380.992 224.193 380.73 224.166 380.464 224.113C380.165 224.166 379.936 224.289 379.776 224.481C379.626 224.662 379.552 224.849 379.552 225.041C379.552 225.254 379.626 225.414 379.776 225.521C379.925 225.627 380.17 225.681 380.512 225.681H382.32C383.248 225.681 383.914 225.867 384.32 226.241C384.725 226.614 384.928 227.153 384.928 227.857ZM383.792 227.937C383.792 227.574 383.68 227.297 383.456 227.105C383.232 226.923 382.848 226.833 382.304 226.833H379.792C379.546 226.95 379.37 227.099 379.264 227.281C379.168 227.462 379.12 227.691 379.12 227.969C379.12 228.385 379.248 228.71 379.504 228.945C379.76 229.19 380.17 229.313 380.736 229.313H381.792C382.453 229.313 382.949 229.201 383.28 228.977C383.621 228.763 383.792 228.417 383.792 227.937ZM381.248 223.201C381.749 223.201 382.138 223.073 382.416 222.817C382.693 222.561 382.832 222.166 382.832 221.633V221.041C382.832 220.507 382.693 220.113 382.416 219.857C382.138 219.601 381.749 219.473 381.248 219.473C380.746 219.473 380.357 219.601 380.08 219.857C379.802 220.113 379.664 220.507 379.664 221.041V221.633C379.664 222.166 379.802 222.561 380.08 222.817C380.357 223.073 380.746 223.201 381.248 223.201ZM390.887 226.929C390.45 226.929 390.13 226.833 389.927 226.641C389.735 226.438 389.639 226.118 389.639 225.681V215.089H390.855V225.857H391.895V226.929H390.887ZM398.808 226.929C398.019 226.929 397.624 226.534 397.624 225.745V225.585H397.464C397.326 226.086 397.07 226.47 396.696 226.737C396.334 226.993 395.896 227.121 395.384 227.121C394.584 227.121 393.987 226.918 393.592 226.513C393.198 226.107 393 225.51 393 224.721C393 223.953 393.251 223.345 393.752 222.897C394.264 222.449 395.059 222.225 396.136 222.225H397.624V221.313C397.624 220.705 397.486 220.257 397.208 219.969C396.942 219.681 396.515 219.537 395.928 219.537C395.448 219.537 395.059 219.643 394.76 219.857C394.472 220.059 394.222 220.358 394.008 220.753L393.288 220.081C393.502 219.633 393.843 219.259 394.312 218.961C394.782 218.651 395.336 218.497 395.976 218.497C396.915 218.497 397.624 218.726 398.104 219.185C398.595 219.633 398.84 220.299 398.84 221.185V225.857H399.672V226.929H398.808ZM395.688 226.065C395.966 226.065 396.222 226.017 396.456 225.921C396.702 225.825 396.91 225.702 397.08 225.553C397.251 225.393 397.384 225.217 397.48 225.025C397.576 224.822 397.624 224.614 397.624 224.401V223.153H396.104C395.464 223.153 394.995 223.259 394.696 223.473C394.408 223.686 394.264 223.995 394.264 224.401V224.849C394.264 225.265 394.392 225.574 394.648 225.777C394.904 225.969 395.251 226.065 395.688 226.065ZM401.327 226.929V218.673H402.543V220.017H402.703C402.863 219.505 403.108 219.121 403.439 218.865C403.78 218.609 404.239 218.481 404.815 218.481C405.551 218.481 406.127 218.731 406.543 219.233C406.97 219.734 407.183 220.507 407.183 221.553V226.929H405.967V221.633C405.967 220.971 405.828 220.465 405.551 220.113C405.284 219.761 404.868 219.585 404.303 219.585C403.812 219.585 403.396 219.734 403.055 220.033C402.714 220.331 402.543 220.753 402.543 221.297V226.929H401.327ZM415.834 227.857C415.834 228.731 415.535 229.361 414.938 229.745C414.351 230.129 413.439 230.321 412.202 230.321C411.018 230.321 410.17 230.145 409.658 229.793C409.157 229.441 408.906 228.934 408.906 228.273C408.906 227.825 409.018 227.473 409.242 227.217C409.466 226.961 409.754 226.801 410.106 226.737V226.513C409.893 226.395 409.722 226.246 409.594 226.065C409.477 225.873 409.418 225.649 409.418 225.393C409.418 225.051 409.514 224.758 409.706 224.513C409.909 224.267 410.234 224.118 410.682 224.065V223.889C410.255 223.675 409.919 223.361 409.674 222.945C409.439 222.518 409.322 221.985 409.322 221.345C409.322 220.406 409.578 219.697 410.09 219.217C410.602 218.737 411.29 218.497 412.154 218.497C412.666 218.497 413.13 218.587 413.546 218.769V218.481C413.546 218.171 413.615 217.947 413.754 217.809C413.893 217.67 414.117 217.601 414.426 217.601H415.53V218.673H414.106V219.121C414.383 219.366 414.597 219.67 414.746 220.033C414.906 220.395 414.986 220.833 414.986 221.345C414.986 222.283 414.73 222.993 414.218 223.473C413.706 223.953 413.018 224.193 412.154 224.193C411.898 224.193 411.637 224.166 411.37 224.113C411.071 224.166 410.842 224.289 410.682 224.481C410.533 224.662 410.458 224.849 410.458 225.041C410.458 225.254 410.533 225.414 410.682 225.521C410.831 225.627 411.077 225.681 411.418 225.681H413.226C414.154 225.681 414.821 225.867 415.226 226.241C415.631 226.614 415.834 227.153 415.834 227.857ZM414.698 227.937C414.698 227.574 414.586 227.297 414.362 227.105C414.138 226.923 413.754 226.833 413.21 226.833H410.698C410.453 226.95 410.277 227.099 410.17 227.281C410.074 227.462 410.026 227.691 410.026 227.969C410.026 228.385 410.154 228.71 410.41 228.945C410.666 229.19 411.077 229.313 411.642 229.313H412.698C413.359 229.313 413.855 229.201 414.186 228.977C414.527 228.763 414.698 228.417 414.698 227.937ZM412.154 223.201C412.655 223.201 413.045 223.073 413.322 222.817C413.599 222.561 413.738 222.166 413.738 221.633V221.041C413.738 220.507 413.599 220.113 413.322 219.857C413.045 219.601 412.655 219.473 412.154 219.473C411.653 219.473 411.263 219.601 410.986 219.857C410.709 220.113 410.57 220.507 410.57 221.041V221.633C410.57 222.166 410.709 222.561 410.986 222.817C411.263 223.073 411.653 223.201 412.154 223.201ZM421.637 225.585H421.477C421.317 226.097 421.066 226.481 420.725 226.737C420.394 226.993 419.941 227.121 419.365 227.121C418.629 227.121 418.048 226.87 417.621 226.369C417.205 225.867 416.997 225.094 416.997 224.049V218.673H418.213V223.969C418.213 224.63 418.346 225.137 418.613 225.489C418.89 225.841 419.312 226.017 419.877 226.017C420.368 226.017 420.784 225.867 421.125 225.569C421.466 225.27 421.637 224.849 421.637 224.305V218.673H422.853V226.929H421.637V225.585ZM430.496 226.929C429.707 226.929 429.312 226.534 429.312 225.745V225.585H429.152C429.013 226.086 428.757 226.47 428.384 226.737C428.021 226.993 427.584 227.121 427.072 227.121C426.272 227.121 425.675 226.918 425.28 226.513C424.885 226.107 424.688 225.51 424.688 224.721C424.688 223.953 424.939 223.345 425.44 222.897C425.952 222.449 426.747 222.225 427.824 222.225H429.312V221.313C429.312 220.705 429.173 220.257 428.896 219.969C428.629 219.681 428.203 219.537 427.616 219.537C427.136 219.537 426.747 219.643 426.448 219.857C426.16 220.059 425.909 220.358 425.696 220.753L424.976 220.081C425.189 219.633 425.531 219.259 426 218.961C426.469 218.651 427.024 218.497 427.664 218.497C428.603 218.497 429.312 218.726 429.792 219.185C430.283 219.633 430.528 220.299 430.528 221.185V225.857H431.36V226.929H430.496ZM427.376 226.065C427.653 226.065 427.909 226.017 428.144 225.921C428.389 225.825 428.597 225.702 428.768 225.553C428.939 225.393 429.072 225.217 429.168 225.025C429.264 224.822 429.312 224.614 429.312 224.401V223.153H427.792C427.152 223.153 426.683 223.259 426.384 223.473C426.096 223.686 425.952 223.995 425.952 224.401V224.849C425.952 225.265 426.08 225.574 426.336 225.777C426.592 225.969 426.939 226.065 427.376 226.065ZM439.318 227.857C439.318 228.731 439.02 229.361 438.422 229.745C437.836 230.129 436.924 230.321 435.686 230.321C434.502 230.321 433.654 230.145 433.142 229.793C432.641 229.441 432.39 228.934 432.39 228.273C432.39 227.825 432.502 227.473 432.726 227.217C432.95 226.961 433.238 226.801 433.59 226.737V226.513C433.377 226.395 433.206 226.246 433.078 226.065C432.961 225.873 432.902 225.649 432.902 225.393C432.902 225.051 432.998 224.758 433.19 224.513C433.393 224.267 433.718 224.118 434.166 224.065V223.889C433.74 223.675 433.404 223.361 433.158 222.945C432.924 222.518 432.806 221.985 432.806 221.345C432.806 220.406 433.062 219.697 433.574 219.217C434.086 218.737 434.774 218.497 435.638 218.497C436.15 218.497 436.614 218.587 437.03 218.769V218.481C437.03 218.171 437.1 217.947 437.238 217.809C437.377 217.67 437.601 217.601 437.91 217.601H439.014V218.673H437.59V219.121C437.868 219.366 438.081 219.67 438.23 220.033C438.39 220.395 438.47 220.833 438.47 221.345C438.47 222.283 438.214 222.993 437.702 223.473C437.19 223.953 436.502 224.193 435.638 224.193C435.382 224.193 435.121 224.166 434.854 224.113C434.556 224.166 434.326 224.289 434.166 224.481C434.017 224.662 433.942 224.849 433.942 225.041C433.942 225.254 434.017 225.414 434.166 225.521C434.316 225.627 434.561 225.681 434.902 225.681H436.71C437.638 225.681 438.305 225.867 438.71 226.241C439.116 226.614 439.318 227.153 439.318 227.857ZM438.182 227.937C438.182 227.574 438.07 227.297 437.846 227.105C437.622 226.923 437.238 226.833 436.694 226.833H434.182C433.937 226.95 433.761 227.099 433.654 227.281C433.558 227.462 433.51 227.691 433.51 227.969C433.51 228.385 433.638 228.71 433.894 228.945C434.15 229.19 434.561 229.313 435.126 229.313H436.182C436.844 229.313 437.34 229.201 437.67 228.977C438.012 228.763 438.182 228.417 438.182 227.937ZM435.638 223.201C436.14 223.201 436.529 223.073 436.806 222.817C437.084 222.561 437.222 222.166 437.222 221.633V221.041C437.222 220.507 437.084 220.113 436.806 219.857C436.529 219.601 436.14 219.473 435.638 219.473C435.137 219.473 434.748 219.601 434.47 219.857C434.193 220.113 434.054 220.507 434.054 221.041V221.633C434.054 222.166 434.193 222.561 434.47 222.817C434.748 223.073 435.137 223.201 435.638 223.201ZM443.377 227.121C442.897 227.121 442.449 227.041 442.033 226.881C441.617 226.721 441.26 226.465 440.961 226.113C440.663 225.761 440.428 225.313 440.257 224.769C440.087 224.225 440.001 223.569 440.001 222.801C440.001 222.033 440.087 221.377 440.257 220.833C440.428 220.289 440.663 219.841 440.961 219.489C441.26 219.137 441.617 218.881 442.033 218.721C442.449 218.561 442.897 218.481 443.377 218.481C443.857 218.481 444.295 218.561 444.689 218.721C445.095 218.881 445.436 219.137 445.713 219.489C445.991 219.841 446.204 220.289 446.353 220.833C446.513 221.377 446.593 222.033 446.593 222.801V223.105H441.297V223.633C441.297 224.443 441.479 225.051 441.841 225.457C442.215 225.851 442.727 226.049 443.377 226.049C443.932 226.049 444.385 225.931 444.737 225.697C445.089 225.451 445.367 225.089 445.569 224.609L446.401 225.217C446.145 225.782 445.767 226.241 445.265 226.593C444.775 226.945 444.145 227.121 443.377 227.121ZM443.377 219.505C442.716 219.505 442.204 219.713 441.841 220.129C441.479 220.545 441.297 221.158 441.297 221.969V222.177H445.297V221.969C445.297 220.326 444.657 219.505 443.377 219.505Z" fill="white"/>
<circle cx="116" cy="119" r="2" fill="white"/>
<circle cx="124" cy="119" r="2" fill="white"/>
<circle cx="132" cy="119" r="2" fill="white"/>
<g filter="url(#filter0_d)">
<path d="M195.992 185.156H192.68C191.336 185.156 190.364 184.832 189.764 184.184C189.188 183.536 188.9 182.636 188.9 181.484V179.324C186.356 179.012 184.364 177.824 182.924 175.76C181.484 173.696 180.764 170.588 180.764 166.436C180.764 164.156 180.98 162.2 181.412 160.568C181.868 158.912 182.516 157.556 183.356 156.5C184.22 155.444 185.252 154.676 186.452 154.196C187.652 153.692 189.008 153.44 190.52 153.44C192.032 153.44 193.388 153.692 194.588 154.196C195.788 154.676 196.808 155.444 197.648 156.5C198.512 157.556 199.16 158.912 199.592 160.568C200.048 162.2 200.276 164.156 200.276 166.436C200.276 170.492 199.58 173.552 198.188 175.616C196.82 177.656 194.924 178.868 192.5 179.252V181.988H195.992V185.156ZM190.52 176.048C192.32 176.048 193.712 175.472 194.696 174.32C195.68 173.144 196.172 171.524 196.172 169.46V163.412C196.172 161.348 195.68 159.74 194.696 158.588C193.712 157.412 192.32 156.824 190.52 156.824C188.72 156.824 187.328 157.412 186.344 158.588C185.36 159.74 184.868 161.348 184.868 163.412V169.46C184.868 171.524 185.36 173.144 186.344 174.32C187.328 175.472 188.72 176.048 190.52 176.048ZM208.399 153.872V170.144C208.399 172.16 208.747 173.648 209.443 174.608C210.139 175.568 211.375 176.048 213.151 176.048C214.927 176.048 216.163 175.568 216.859 174.608C217.555 173.648 217.903 172.16 217.903 170.144V153.872H221.719V169.532C221.719 171.236 221.563 172.712 221.251 173.96C220.963 175.208 220.483 176.24 219.811 177.056C219.139 177.872 218.251 178.472 217.147 178.856C216.067 179.24 214.735 179.432 213.151 179.432C211.567 179.432 210.223 179.24 209.119 178.856C208.039 178.472 207.163 177.872 206.491 177.056C205.819 176.24 205.327 175.208 205.015 173.96C204.727 172.712 204.583 171.236 204.583 169.532V153.872H208.399Z" fill="white"/>
<path d="M244.332 163.52L244.584 159.236H244.152L242.424 163.448L237.528 173.672L232.668 163.448L230.94 159.308H230.508L230.76 163.52V179H227.088V153.872H231.588L235.656 162.656L237.42 167.624H237.744L239.508 162.656L243.54 153.872H248.004V179H244.332V163.52ZM262.309 179.432C260.797 179.432 259.441 179.192 258.241 178.712C257.041 178.208 256.009 177.428 255.145 176.372C254.305 175.316 253.657 173.972 253.201 172.34C252.769 170.684 252.553 168.716 252.553 166.436C252.553 164.156 252.769 162.2 253.201 160.568C253.657 158.912 254.305 157.556 255.145 156.5C256.009 155.444 257.041 154.676 258.241 154.196C259.441 153.692 260.797 153.44 262.309 153.44C263.821 153.44 265.177 153.692 266.377 154.196C267.577 154.676 268.597 155.444 269.437 156.5C270.301 157.556 270.949 158.912 271.381 160.568C271.837 162.2 272.065 164.156 272.065 166.436C272.065 168.716 271.837 170.684 271.381 172.34C270.949 173.972 270.301 175.316 269.437 176.372C268.597 177.428 267.577 178.208 266.377 178.712C265.177 179.192 263.821 179.432 262.309 179.432ZM262.309 176.048C264.109 176.048 265.501 175.472 266.485 174.32C267.469 173.144 267.961 171.524 267.961 169.46V163.412C267.961 161.348 267.469 159.74 266.485 158.588C265.501 157.412 264.109 156.824 262.309 156.824C260.509 156.824 259.117 157.412 258.133 158.588C257.149 159.74 256.657 161.348 256.657 163.412V169.46C256.657 171.524 257.149 173.144 258.133 174.32C259.117 175.472 260.509 176.048 262.309 176.048ZM276.588 153.872H284.868C286.356 153.872 287.676 154.112 288.828 154.592C290.004 155.072 290.988 155.828 291.78 156.86C292.596 157.868 293.208 159.164 293.616 160.748C294.048 162.332 294.264 164.228 294.264 166.436C294.264 168.644 294.048 170.54 293.616 172.124C293.208 173.708 292.596 175.016 291.78 176.048C290.988 177.056 290.004 177.8 288.828 178.28C287.676 178.76 286.356 179 284.868 179H276.588V153.872ZM284.868 175.652C286.524 175.652 287.82 175.124 288.756 174.068C289.692 172.988 290.16 171.416 290.16 169.352V163.52C290.16 161.456 289.692 159.896 288.756 158.84C287.82 157.76 286.524 157.22 284.868 157.22H280.404V175.652H284.868ZM298.807 179V153.872H313.387V157.22H302.623V164.564H312.343V167.876H302.623V175.652H313.387V179H298.807Z" fill="#6500FF"/>
<path d="M195.992 185.156V186.156H196.992V185.156H195.992ZM189.764 184.184L189.017 184.848L189.023 184.856L189.03 184.863L189.764 184.184ZM188.9 179.324H189.9V178.439L189.022 178.331L188.9 179.324ZM182.924 175.76L182.104 176.332L182.924 175.76ZM181.412 160.568L180.448 160.303L180.445 160.312L181.412 160.568ZM183.356 156.5L182.582 155.867L182.573 155.877L183.356 156.5ZM186.452 154.196L186.823 155.124L186.831 155.121L186.839 155.118L186.452 154.196ZM194.588 154.196L194.201 155.118L194.209 155.121L194.217 155.124L194.588 154.196ZM197.648 156.5L196.865 157.123L196.874 157.133L197.648 156.5ZM199.592 160.568L198.624 160.82L198.627 160.829L198.629 160.837L199.592 160.568ZM198.188 175.616L197.359 175.057L197.357 175.059L198.188 175.616ZM192.5 179.252L192.344 178.264L191.5 178.398V179.252H192.5ZM192.5 181.988H191.5V182.988H192.5V181.988ZM195.992 181.988H196.992V180.988H195.992V181.988ZM194.696 174.32L195.456 174.97L195.463 174.962L194.696 174.32ZM194.696 158.588L193.929 159.23L193.936 159.237L194.696 158.588ZM186.344 158.588L187.104 159.238L187.111 159.23L186.344 158.588ZM186.344 174.32L185.577 174.962L185.584 174.969L186.344 174.32ZM195.992 184.156H192.68V186.156H195.992V184.156ZM192.68 184.156C191.47 184.156 190.829 183.862 190.498 183.505L189.03 184.863C189.899 185.802 191.202 186.156 192.68 186.156V184.156ZM190.511 183.52C190.145 183.108 189.9 182.473 189.9 181.484H187.9C187.9 182.799 188.231 183.964 189.017 184.848L190.511 183.52ZM189.9 181.484V179.324H187.9V181.484H189.9ZM189.022 178.331C186.754 178.053 185.018 177.014 183.744 175.188L182.104 176.332C183.71 178.634 185.958 179.971 188.778 180.317L189.022 178.331ZM183.744 175.188C182.475 173.369 181.764 170.504 181.764 166.436H179.764C179.764 170.672 180.493 174.023 182.104 176.332L183.744 175.188ZM181.764 166.436C181.764 164.214 181.975 162.349 182.379 160.824L180.445 160.312C179.985 162.051 179.764 164.098 179.764 166.436H181.764ZM182.376 160.833C182.806 159.273 183.402 158.048 184.139 157.123L182.573 155.877C181.63 157.064 180.93 158.551 180.448 160.303L182.376 160.833ZM184.13 157.133C184.893 156.201 185.789 155.538 186.823 155.124L186.081 153.268C184.715 153.814 183.547 154.687 182.582 155.867L184.13 157.133ZM186.839 155.118C187.898 154.673 189.12 154.44 190.52 154.44V152.44C188.896 152.44 187.406 152.711 186.065 153.274L186.839 155.118ZM190.52 154.44C191.92 154.44 193.142 154.673 194.201 155.118L194.975 153.274C193.634 152.711 192.144 152.44 190.52 152.44V154.44ZM194.217 155.124C195.248 155.537 196.129 156.196 196.865 157.123L198.431 155.877C197.487 154.692 196.328 153.815 194.959 153.268L194.217 155.124ZM196.874 157.133C197.627 158.053 198.22 159.269 198.624 160.82L200.56 160.316C200.1 158.555 199.397 157.059 198.422 155.867L196.874 157.133ZM198.629 160.837C199.054 162.357 199.276 164.218 199.276 166.436H201.276C201.276 164.094 201.042 162.043 200.555 160.299L198.629 160.837ZM199.276 166.436C199.276 170.407 198.589 173.232 197.359 175.057L199.017 176.175C200.571 173.872 201.276 170.577 201.276 166.436H199.276ZM197.357 175.059C196.144 176.868 194.492 177.924 192.344 178.264L192.656 180.24C195.356 179.812 197.496 178.444 199.019 176.173L197.357 175.059ZM191.5 179.252V181.988H193.5V179.252H191.5ZM192.5 182.988H195.992V180.988H192.5V182.988ZM194.992 181.988V185.156H196.992V181.988H194.992ZM190.52 177.048C192.552 177.048 194.246 176.386 195.456 174.969L193.936 173.671C193.178 174.558 192.088 175.048 190.52 175.048V177.048ZM195.463 174.962C196.643 173.552 197.172 171.677 197.172 169.46H195.172C195.172 171.371 194.717 172.736 193.929 173.678L195.463 174.962ZM197.172 169.46V163.412H195.172V169.46H197.172ZM197.172 163.412C197.172 161.196 196.643 159.328 195.456 157.939L193.936 159.237C194.717 160.152 195.172 161.5 195.172 163.412H197.172ZM195.463 157.946C194.255 156.503 192.559 155.824 190.52 155.824V157.824C192.081 157.824 193.169 158.321 193.929 159.23L195.463 157.946ZM190.52 155.824C188.481 155.824 186.785 156.503 185.577 157.946L187.111 159.23C187.871 158.321 188.959 157.824 190.52 157.824V155.824ZM185.584 157.939C184.397 159.328 183.868 161.196 183.868 163.412H185.868C185.868 161.5 186.323 160.152 187.104 159.237L185.584 157.939ZM183.868 163.412V169.46H185.868V163.412H183.868ZM183.868 169.46C183.868 171.677 184.397 173.552 185.577 174.962L187.111 173.678C186.323 172.736 185.868 171.371 185.868 169.46H183.868ZM185.584 174.969C186.794 176.386 188.488 177.048 190.52 177.048V175.048C188.952 175.048 187.862 174.558 187.104 173.671L185.584 174.969ZM208.399 153.872H209.399V152.872H208.399V153.872ZM209.443 174.608L210.253 174.021L209.443 174.608ZM216.859 174.608L217.669 175.195V175.195L216.859 174.608ZM217.903 153.872V152.872H216.903V153.872H217.903ZM221.719 153.872H222.719V152.872H221.719V153.872ZM221.251 173.96L220.281 173.717L220.279 173.726L220.277 173.735L221.251 173.96ZM219.811 177.056L220.583 177.692L219.811 177.056ZM217.147 178.856L216.819 177.911L216.812 177.914L217.147 178.856ZM209.119 178.856L208.784 179.798L208.791 179.8L209.119 178.856ZM206.491 177.056L205.719 177.692L206.491 177.056ZM205.015 173.96L204.041 174.185L204.043 174.194L204.045 174.203L205.015 173.96ZM204.583 153.872V152.872H203.583V153.872H204.583ZM207.399 153.872V170.144H209.399V153.872H207.399ZM207.399 170.144C207.399 172.238 207.754 173.981 208.634 175.195L210.253 174.021C209.741 173.315 209.399 172.082 209.399 170.144H207.399ZM208.634 175.195C209.598 176.525 211.221 177.048 213.151 177.048V175.048C211.529 175.048 210.681 174.611 210.253 174.021L208.634 175.195ZM213.151 177.048C215.081 177.048 216.705 176.525 217.669 175.195L216.05 174.021C215.622 174.611 214.773 175.048 213.151 175.048V177.048ZM217.669 175.195C218.549 173.981 218.903 172.238 218.903 170.144H216.903C216.903 172.082 216.562 173.315 216.05 174.021L217.669 175.195ZM218.903 170.144V153.872H216.903V170.144H218.903ZM217.903 154.872H221.719V152.872H217.903V154.872ZM220.719 153.872V169.532H222.719V153.872H220.719ZM220.719 169.532C220.719 171.179 220.568 172.57 220.281 173.717L222.221 174.203C222.559 172.854 222.719 171.293 222.719 169.532H220.719ZM220.277 173.735C220.016 174.864 219.594 175.746 219.039 176.42L220.583 177.692C221.372 176.734 221.91 175.552 222.226 174.185L220.277 173.735ZM219.039 176.42C218.496 177.08 217.768 177.581 216.819 177.912L217.476 179.8C218.734 179.363 219.783 178.664 220.583 177.692L219.039 176.42ZM216.812 177.914C215.872 178.248 214.662 178.432 213.151 178.432V180.432C214.809 180.432 216.262 180.232 217.482 179.798L216.812 177.914ZM213.151 178.432C211.642 178.432 210.416 178.248 209.448 177.912L208.791 179.8C210.031 180.232 211.493 180.432 213.151 180.432V178.432ZM209.454 177.914C208.53 177.585 207.81 177.085 207.263 176.42L205.719 177.692C206.516 178.659 207.549 179.359 208.784 179.798L209.454 177.914ZM207.263 176.42C206.704 175.741 206.269 174.852 205.985 173.717L204.045 174.203C204.386 175.564 204.935 176.739 205.719 177.692L207.263 176.42ZM205.99 173.735C205.723 172.58 205.583 171.184 205.583 169.532H203.583C203.583 171.288 203.731 172.844 204.041 174.185L205.99 173.735ZM205.583 169.532V153.872H203.583V169.532H205.583ZM204.583 154.872H208.399V152.872H204.583V154.872ZM244.332 163.52L243.334 163.461L243.332 163.491V163.52H244.332ZM244.584 159.236L245.583 159.295L245.645 158.236H244.584V159.236ZM244.152 159.236V158.236H243.482L243.227 158.856L244.152 159.236ZM242.424 163.448L243.326 163.88L243.339 163.854L243.35 163.828L242.424 163.448ZM237.528 173.672L236.625 174.101L237.525 175.994L238.43 174.104L237.528 173.672ZM232.668 163.448L231.746 163.833L231.755 163.855L231.765 163.877L232.668 163.448ZM230.94 159.308L231.863 158.923L231.607 158.308H230.94V159.308ZM230.508 159.308V158.308H229.447L229.51 159.368L230.508 159.308ZM230.76 163.52H231.76V163.49L231.759 163.46L230.76 163.52ZM230.76 179V180H231.76V179H230.76ZM227.088 179H226.088V180H227.088V179ZM227.088 153.872V152.872H226.088V153.872H227.088ZM231.588 153.872L232.496 153.452L232.227 152.872H231.588V153.872ZM235.656 162.656L236.599 162.321L236.583 162.278L236.564 162.236L235.656 162.656ZM237.42 167.624L236.478 167.959L236.714 168.624H237.42V167.624ZM237.744 167.624V168.624H238.451L238.687 167.959L237.744 167.624ZM239.508 162.656L238.6 162.239L238.581 162.279L238.566 162.321L239.508 162.656ZM243.54 153.872V152.872H242.899L242.632 153.455L243.54 153.872ZM248.004 153.872H249.004V152.872H248.004V153.872ZM248.004 179V180H249.004V179H248.004ZM244.332 179H243.332V180H244.332V179ZM245.331 163.579L245.583 159.295L243.586 159.177L243.334 163.461L245.331 163.579ZM244.584 158.236H244.152V160.236H244.584V158.236ZM243.227 158.856L241.499 163.068L243.35 163.828L245.078 159.616L243.227 158.856ZM241.522 163.016L236.626 173.24L238.43 174.104L243.326 163.88L241.522 163.016ZM238.432 173.243L233.572 163.019L231.765 163.877L236.625 174.101L238.432 173.243ZM233.591 163.063L231.863 158.923L230.018 159.693L231.746 163.833L233.591 163.063ZM230.94 158.308H230.508V160.308H230.94V158.308ZM229.51 159.368L229.762 163.58L231.759 163.46L231.507 159.248L229.51 159.368ZM229.76 163.52V179H231.76V163.52H229.76ZM230.76 178H227.088V180H230.76V178ZM228.088 179V153.872H226.088V179H228.088ZM227.088 154.872H231.588V152.872H227.088V154.872ZM230.681 154.292L234.749 163.076L236.564 162.236L232.496 153.452L230.681 154.292ZM234.714 162.991L236.478 167.959L238.363 167.289L236.599 162.321L234.714 162.991ZM237.42 168.624H237.744V166.624H237.42V168.624ZM238.687 167.959L240.451 162.991L238.566 162.321L236.802 167.289L238.687 167.959ZM240.417 163.073L244.449 154.289L242.632 153.455L238.6 162.239L240.417 163.073ZM243.54 154.872H248.004V152.872H243.54V154.872ZM247.004 153.872V179H249.004V153.872H247.004ZM248.004 178H244.332V180H248.004V178ZM245.332 179V163.52H243.332V179H245.332ZM258.241 178.712L257.854 179.634L257.862 179.637L257.87 179.64L258.241 178.712ZM255.145 176.372L254.362 176.995L254.371 177.005L255.145 176.372ZM253.201 172.34L252.233 172.592L252.236 172.601L252.238 172.609L253.201 172.34ZM253.201 160.568L252.237 160.303L252.234 160.312L253.201 160.568ZM255.145 156.5L254.371 155.867L254.362 155.877L255.145 156.5ZM258.241 154.196L258.612 155.124L258.62 155.121L258.628 155.118L258.241 154.196ZM266.377 154.196L265.99 155.118L265.998 155.121L266.006 155.124L266.377 154.196ZM269.437 156.5L268.654 157.123L268.663 157.133L269.437 156.5ZM271.381 160.568L270.413 160.82L270.416 160.829L270.418 160.837L271.381 160.568ZM271.381 172.34L270.417 172.075L270.414 172.084L271.381 172.34ZM269.437 176.372L268.663 175.739L268.654 175.749L269.437 176.372ZM266.377 178.712L266.748 179.64L266.756 179.637L266.764 179.634L266.377 178.712ZM266.485 174.32L267.245 174.97L267.252 174.962L266.485 174.32ZM266.485 158.588L265.718 159.23L265.725 159.237L266.485 158.588ZM258.133 158.588L258.893 159.238L258.9 159.23L258.133 158.588ZM258.133 174.32L257.366 174.962L257.373 174.969L258.133 174.32ZM262.309 178.432C260.903 178.432 259.676 178.209 258.612 177.784L257.87 179.64C259.206 180.175 260.691 180.432 262.309 180.432V178.432ZM258.628 177.79C257.586 177.352 256.685 176.675 255.919 175.739L254.371 177.005C255.333 178.181 256.496 179.064 257.854 179.634L258.628 177.79ZM255.928 175.749C255.189 174.821 254.593 173.606 254.164 172.071L252.238 172.609C252.721 174.338 253.421 175.811 254.362 176.995L255.928 175.749ZM254.169 172.088C253.764 170.536 253.553 168.657 253.553 166.436H251.553C251.553 168.775 251.774 170.832 252.233 172.592L254.169 172.088ZM253.553 166.436C253.553 164.214 253.764 162.349 254.168 160.824L252.234 160.312C251.774 162.051 251.553 164.098 251.553 166.436H253.553ZM254.165 160.833C254.595 159.273 255.191 158.048 255.928 157.123L254.362 155.877C253.419 157.064 252.719 158.551 252.237 160.303L254.165 160.833ZM255.919 157.133C256.682 156.201 257.578 155.538 258.612 155.124L257.87 153.268C256.504 153.814 255.336 154.687 254.371 155.867L255.919 157.133ZM258.628 155.118C259.688 154.673 260.909 154.44 262.309 154.44V152.44C260.685 152.44 259.195 152.711 257.854 153.274L258.628 155.118ZM262.309 154.44C263.709 154.44 264.931 154.673 265.99 155.118L266.764 153.274C265.424 152.711 263.933 152.44 262.309 152.44V154.44ZM266.006 155.124C267.037 155.537 267.918 156.196 268.654 157.123L270.22 155.877C269.276 154.692 268.117 153.815 266.748 153.268L266.006 155.124ZM268.663 157.133C269.416 158.053 270.009 159.269 270.413 160.82L272.349 160.316C271.889 158.555 271.186 157.059 270.211 155.867L268.663 157.133ZM270.418 160.837C270.843 162.357 271.065 164.218 271.065 166.436H273.065C273.065 164.094 272.831 162.043 272.344 160.299L270.418 160.837ZM271.065 166.436C271.065 168.654 270.843 170.528 270.417 172.075L272.345 172.605C272.831 170.84 273.065 168.778 273.065 166.436H271.065ZM270.414 172.084C270.01 173.61 269.418 174.816 268.663 175.739L270.211 177.005C271.184 175.816 271.888 174.334 272.348 172.596L270.414 172.084ZM268.654 175.749C267.915 176.679 267.029 177.353 265.99 177.79L266.764 179.634C268.125 179.063 269.279 178.177 270.22 176.995L268.654 175.749ZM266.006 177.784C264.942 178.209 263.715 178.432 262.309 178.432V180.432C263.927 180.432 265.412 180.175 266.748 179.64L266.006 177.784ZM262.309 177.048C264.341 177.048 266.035 176.386 267.245 174.969L265.725 173.671C264.967 174.558 263.877 175.048 262.309 175.048V177.048ZM267.252 174.962C268.432 173.552 268.961 171.677 268.961 169.46H266.961C266.961 171.371 266.506 172.736 265.718 173.678L267.252 174.962ZM268.961 169.46V163.412H266.961V169.46H268.961ZM268.961 163.412C268.961 161.196 268.432 159.328 267.245 157.939L265.725 159.237C266.506 160.152 266.961 161.5 266.961 163.412H268.961ZM267.252 157.946C266.044 156.503 264.348 155.824 262.309 155.824V157.824C263.87 157.824 264.958 158.321 265.718 159.23L267.252 157.946ZM262.309 155.824C260.27 155.824 258.574 156.503 257.366 157.946L258.9 159.23C259.66 158.321 260.748 157.824 262.309 157.824V155.824ZM257.373 157.939C256.186 159.328 255.657 161.196 255.657 163.412H257.657C257.657 161.5 258.112 160.152 258.893 159.237L257.373 157.939ZM255.657 163.412V169.46H257.657V163.412H255.657ZM255.657 169.46C255.657 171.677 256.186 173.552 257.366 174.962L258.9 173.678C258.112 172.736 257.657 171.371 257.657 169.46H255.657ZM257.373 174.969C258.583 176.386 260.277 177.048 262.309 177.048V175.048C260.741 175.048 259.651 174.558 258.893 173.671L257.373 174.969ZM276.588 153.872V152.872H275.588V153.872H276.588ZM288.828 154.592L288.444 155.515L288.451 155.518L288.828 154.592ZM291.78 156.86L290.987 157.469L290.995 157.479L291.003 157.489L291.78 156.86ZM293.616 160.748L292.648 160.997L292.65 161.004L292.652 161.011L293.616 160.748ZM293.616 172.124L292.652 171.861L292.65 171.868L292.648 171.875L293.616 172.124ZM291.78 176.048L290.996 175.428L290.994 175.43L291.78 176.048ZM288.828 178.28L288.451 177.354L288.444 177.357L288.828 178.28ZM276.588 179H275.588V180H276.588V179ZM288.756 174.068L289.505 174.731L289.512 174.723L288.756 174.068ZM288.756 158.84L288.001 159.495L288.008 159.503L288.756 158.84ZM280.404 157.22V156.22H279.404V157.22H280.404ZM280.404 175.652H279.404V176.652H280.404V175.652ZM276.588 154.872H284.868V152.872H276.588V154.872ZM284.868 154.872C286.249 154.872 287.435 155.095 288.444 155.515L289.213 153.669C287.918 153.129 286.464 152.872 284.868 152.872V154.872ZM288.451 155.518C289.458 155.929 290.3 156.574 290.987 157.469L292.574 156.251C291.677 155.082 290.551 154.215 289.206 153.666L288.451 155.518ZM291.003 157.489C291.709 158.361 292.267 159.517 292.648 160.997L294.585 160.499C294.15 158.811 293.484 157.375 292.558 156.231L291.003 157.489ZM292.652 161.011C293.054 162.486 293.264 164.288 293.264 166.436H295.264C295.264 164.168 295.043 162.178 294.581 160.485L292.652 161.011ZM293.264 166.436C293.264 168.584 293.054 170.386 292.652 171.861L294.581 172.387C295.043 170.694 295.264 168.704 295.264 166.436H293.264ZM292.648 171.875C292.267 173.355 291.707 174.528 290.996 175.428L292.565 176.668C293.486 175.504 294.15 174.061 294.585 172.373L292.648 171.875ZM290.994 175.43C290.308 176.303 289.464 176.94 288.451 177.354L289.206 179.206C290.544 178.66 291.669 177.809 292.567 176.666L290.994 175.43ZM288.444 177.357C287.435 177.777 286.249 178 284.868 178V180C286.464 180 287.918 179.743 289.213 179.203L288.444 177.357ZM284.868 178H276.588V180H284.868V178ZM277.588 179V153.872H275.588V179H277.588ZM284.868 176.652C286.756 176.652 288.346 176.039 289.505 174.731L288.008 173.405C287.295 174.209 286.293 174.652 284.868 174.652V176.652ZM289.512 174.723C290.663 173.395 291.16 171.552 291.16 169.352H289.16C289.16 171.28 288.722 172.581 288.001 173.413L289.512 174.723ZM291.16 169.352V163.52H289.16V169.352H291.16ZM291.16 163.52C291.16 161.322 290.664 159.484 289.505 158.177L288.008 159.503C288.721 160.308 289.16 161.59 289.16 163.52H291.16ZM289.512 158.185C288.355 156.85 286.763 156.22 284.868 156.22V158.22C286.285 158.22 287.286 158.67 288.001 159.495L289.512 158.185ZM284.868 156.22H280.404V158.22H284.868V156.22ZM279.404 157.22V175.652H281.404V157.22H279.404ZM280.404 176.652H284.868V174.652H280.404V176.652ZM298.807 179H297.807V180H298.807V179ZM298.807 153.872V152.872H297.807V153.872H298.807ZM313.387 153.872H314.387V152.872H313.387V153.872ZM313.387 157.22V158.22H314.387V157.22H313.387ZM302.623 157.22V156.22H301.623V157.22H302.623ZM302.623 164.564H301.623V165.564H302.623V164.564ZM312.343 164.564H313.343V163.564H312.343V164.564ZM312.343 167.876V168.876H313.343V167.876H312.343ZM302.623 167.876V166.876H301.623V167.876H302.623ZM302.623 175.652H301.623V176.652H302.623V175.652ZM313.387 175.652H314.387V174.652H313.387V175.652ZM313.387 179V180H314.387V179H313.387ZM299.807 179V153.872H297.807V179H299.807ZM298.807 154.872H313.387V152.872H298.807V154.872ZM312.387 153.872V157.22H314.387V153.872H312.387ZM313.387 156.22H302.623V158.22H313.387V156.22ZM301.623 157.22V164.564H303.623V157.22H301.623ZM302.623 165.564H312.343V163.564H302.623V165.564ZM311.343 164.564V167.876H313.343V164.564H311.343ZM312.343 166.876H302.623V168.876H312.343V166.876ZM301.623 167.876V175.652H303.623V167.876H301.623ZM302.623 176.652H313.387V174.652H302.623V176.652ZM312.387 175.652V179H314.387V175.652H312.387ZM313.387 178H298.807V180H313.387V178Z" fill="black" fill-opacity="0.23"/>
</g>
<circle cx="694.25" cy="313.25" r="5.25" fill="black" stroke="white" stroke-width="2"/>
<circle cx="675" cy="347" r="5.25" fill="black" stroke="white" stroke-width="2"/>
<circle cx="713" cy="347" r="5.25" fill="black" stroke="white" stroke-width="2"/>
<path d="M711.85 36.2L719.65 44L711.85 51.8" stroke="white" stroke-width="2"/>
<path d="M697 36V54" stroke="white" stroke-width="2"/>
<circle cx="704" cy="38" r="2" fill="white" fill-opacity="0.6"/>
<path d="M704.764 47.656H704.728C704.472 48.152 704.184 48.524 703.864 48.772C703.544 49.02 703.144 49.144 702.664 49.144C702.368 49.144 702.1 49.088 701.86 48.976C701.628 48.864 701.428 48.708 701.26 48.508C701.1 48.308 700.976 48.068 700.888 47.788C700.8 47.5 700.756 47.18 700.756 46.828C700.756 46.332 700.816 45.84 700.936 45.352C701.064 44.856 701.252 44.416 701.5 44.032C701.756 43.64 702.072 43.324 702.448 43.084C702.824 42.836 703.26 42.712 703.756 42.712C704.188 42.712 704.556 42.816 704.86 43.024C705.172 43.224 705.38 43.516 705.484 43.9H705.52L705.724 42.856H706.384L704.68 51.4H704.02L704.764 47.656ZM702.82 48.544C703.076 48.544 703.308 48.496 703.516 48.4C703.724 48.304 703.924 48.164 704.116 47.98C704.332 47.788 704.52 47.556 704.68 47.284C704.848 47.012 704.964 46.696 705.028 46.336L705.316 44.908C705.356 44.716 705.356 44.524 705.316 44.332C705.284 44.14 705.208 43.968 705.088 43.816C704.968 43.664 704.8 43.544 704.584 43.456C704.376 43.36 704.12 43.312 703.816 43.312C703.24 43.312 702.764 43.504 702.388 43.888C702.02 44.264 701.768 44.792 701.632 45.472L701.488 46.192C701.472 46.304 701.456 46.416 701.44 46.528C701.432 46.64 701.428 46.764 701.428 46.9C701.428 47.132 701.452 47.348 701.5 47.548C701.556 47.748 701.64 47.924 701.752 48.076C701.872 48.22 702.02 48.336 702.196 48.424C702.372 48.504 702.58 48.544 702.82 48.544Z" fill="white"/>
<rect x="72" y="24" width="100" height="40" rx="20" fill="black"/>
<path d="M107.195 48.0078L110.445 38.625H112.086L107.867 50H106.539L102.328 38.625H103.961L107.195 48.0078ZM122.195 44.6797C122.195 45.7786 122.021 46.7266 121.672 47.5234C121.323 48.3151 120.833 48.9349 120.203 49.3828L122.234 50.9766L121.211 51.9219L118.812 50.0156C118.438 50.1094 118.042 50.1562 117.625 50.1562C116.729 50.1562 115.935 49.9375 115.242 49.5C114.549 49.0573 114.01 48.4297 113.625 47.6172C113.245 46.7995 113.049 45.8542 113.039 44.7812V43.9609C113.039 42.8672 113.229 41.901 113.609 41.0625C113.99 40.224 114.526 39.5833 115.219 39.1406C115.917 38.6927 116.714 38.4688 117.609 38.4688C118.526 38.4688 119.331 38.6901 120.023 39.1328C120.721 39.5755 121.258 40.2135 121.633 41.0469C122.008 41.875 122.195 42.8438 122.195 43.9531V44.6797ZM120.695 43.9453C120.695 42.6068 120.427 41.5755 119.891 40.8516C119.359 40.1224 118.599 39.7578 117.609 39.7578C116.667 39.7578 115.922 40.1198 115.375 40.8438C114.833 41.5625 114.555 42.5625 114.539 43.8438V44.6797C114.539 45.9818 114.81 47.0078 115.352 47.7578C115.898 48.5078 116.656 48.8828 117.625 48.8828C118.594 48.8828 119.344 48.5312 119.875 47.8281C120.406 47.1198 120.68 46.1068 120.695 44.7891V43.9453ZM126.008 45.5469V50H124.508V38.625H128.703C129.948 38.625 130.922 38.9427 131.625 39.5781C132.333 40.2135 132.688 41.0547 132.688 42.1016C132.688 43.2057 132.341 44.0573 131.648 44.6562C130.961 45.25 129.974 45.5469 128.688 45.5469H126.008ZM126.008 44.3203H128.703C129.505 44.3203 130.12 44.1328 130.547 43.7578C130.974 43.3776 131.188 42.8307 131.188 42.1172C131.188 41.4401 130.974 40.8984 130.547 40.4922C130.12 40.0859 129.534 39.875 128.789 39.8594H126.008V44.3203ZM136.109 48.7734H141.5V50H134.602V38.625H136.109V48.7734Z" fill="white"/>
<line x1="229" y1="199.5" x2="485" y2="199.5" stroke="white"/>
<line x1="181" y1="199.5" x2="229" y2="199.5" stroke="#6808F9"/>
<defs>
<filter id="filter0_d" x="175.764" y="152.44" width="142.623" height="41.716" filterUnits="userSpaceOnUse" color-interpolation-filters="sRGB">
<feFlood flood-opacity="0" result="BackgroundImageFix"/>
<feColorMatrix in="SourceAlpha" type="matrix" values="0 0 0 0 0 0 0 0 0 0 0 0 0 0 0 0 0 0 127 0"/>
<feOffset dy="4"/>
<feGaussianBlur stdDeviation="2"/>
<feColorMatrix type="matrix" values="0 0 0 0 0 0 0 0 0 0 0 0 0 0 0 0 0 0 0.25 0"/>
<feBlend mode="normal" in2="BackgroundImageFix" result="effect1_dropShadow"/>
<feBlend mode="normal" in="SourceGraphic" in2="effect1_dropShadow" result="shape"/>
</filter>
</defs>
</svg>
